<mxfile host="app.diagrams.net" modified="2023-11-30T08:05:01.046Z" agent="Mozilla/5.0 (Macintosh; Intel Mac OS X 10_15_7) AppleWebKit/537.36 (KHTML, like Gecko) Chrome/119.0.0.0 Safari/537.36" version="22.1.4" etag="KxV1ljJLxasUaPYR_uhe" type="github">
  <diagram name="Page-1" id="KTuko9gbgvi0070KSZ6Q">
    <mxGraphModel>
      <root>
        <mxCell id="0" />
        <mxCell id="1" parent="0" />
      </root>
    </mxGraphModel>
  </diagram>
</mxfile>
